<svg width="76" height="44" viewBox="0 0 76 44" fill="none" xmlns="http://www.w3.org/2000/svg">
<rect width="74" height="40" transform="translate(0.00390625 3.96387) rotate(-3)" fill="#F3DE6D"/>
<path d="M13.1509 30.312L12.3941 15.8718L17.3573 15.6117C19.1881 15.5158 20.5733 15.7703 21.5129 16.3753C22.4588 16.9732 22.9637 17.8814 23.0276 19.0997C23.0663 19.8387 22.9101 20.4878 22.5589 21.0469C22.2076 21.6061 21.5625 22.0972 20.6233 22.5202C21.412 22.6658 22.0257 22.9107 22.4643 23.2549C22.9092 23.5921 23.2236 23.9862 23.4074 24.4372C23.598 24.8878 23.7061 25.3595 23.7319 25.8521C23.801 27.1703 23.3929 28.173 22.5077 28.8603C21.6291 29.5472 20.2311 29.9409 18.3138 30.0414L13.1509 30.312ZM15.1431 21.8962L18.0891 21.7418C18.5351 21.7184 18.9611 21.6294 19.3669 21.4746C19.7793 21.3194 20.1108 21.0851 20.3614 20.7716C20.6117 20.4514 20.7235 20.0383 20.697 19.5323C20.6594 18.8133 20.3548 18.2885 19.7834 17.958C19.2186 17.6271 18.5068 17.4841 17.648 17.5291L14.9218 17.672L15.1431 21.8962ZM15.476 28.2475L18.2422 28.1025C19.2608 28.0491 20.0268 27.8254 20.5402 27.4313C21.0533 27.0306 21.2915 26.4807 21.2549 25.7817C21.2151 25.0227 20.9028 24.4783 20.3181 24.1485C19.733 23.8119 19.0244 23.6655 18.1922 23.7091L15.2462 23.8635L15.476 28.2475ZM29.3012 29.6158C28.4091 29.6626 27.7427 29.5573 27.302 29.3C26.8675 29.0357 26.5752 28.6805 26.425 28.2344C26.2814 27.788 26.1969 27.3218 26.1715 26.8358L25.5398 14.7823L27.9165 14.6578L28.5335 26.4316C28.5569 26.8777 28.6649 27.2192 28.8576 27.4561C29.0569 27.6926 29.364 27.8201 29.7789 27.8384L30.2992 27.8311L30.3793 29.359C30.2027 29.4284 30.0187 29.4847 29.8274 29.5282C29.6431 29.5779 29.4677 29.6071 29.3012 29.6158ZM35.3978 29.3464C34.4059 29.3984 33.5697 29.1751 32.8894 28.6767C32.2087 28.1717 31.8427 27.4298 31.7914 26.4511C31.7317 25.3127 32.0961 24.4324 32.8847 23.8103C33.6798 23.1878 34.9788 22.816 36.7816 22.6948L38.3174 22.5743L38.2808 21.8752C38.2522 21.3293 38.0667 20.9118 37.7245 20.6226C37.3822 20.3335 36.8749 20.2065 36.2024 20.2418C35.6968 20.275 35.2437 20.4189 34.8432 20.6735C34.4426 20.9282 34.1897 21.3253 34.0845 21.8648L32.0173 21.9732C32.0151 20.9118 32.3962 20.0941 33.1605 19.52C33.9311 18.9389 34.9523 18.615 36.2238 18.5483C37.6952 18.4712 38.7789 18.7048 39.475 19.2491C40.1774 19.7865 40.5558 20.5744 40.6102 21.613L40.9897 28.853L38.9425 28.9603L38.6554 27.1128C38.3168 27.9116 37.8723 28.4757 37.3221 28.8049C36.7716 29.1275 36.1302 29.308 35.3978 29.3464ZM36.1004 27.6573C36.4999 27.6363 36.8844 27.5227 37.2541 27.3164C37.6235 27.1035 37.9235 26.8407 38.1541 26.5283C38.3848 26.2158 38.4912 25.8897 38.4734 25.5502L38.3881 23.9224L37.1209 24.0089C36.1828 24.0714 35.4351 24.2608 34.8775 24.5771C34.32 24.8933 34.0592 25.3943 34.0951 26.0801C34.1227 26.606 34.3274 27.0092 34.7093 27.2896C35.0908 27.5633 35.5545 27.6859 36.1004 27.6573ZM47.565 17.954C48.3706 17.9118 49.0881 18.0377 49.7177 18.3318C50.347 18.6193 50.8595 19.0364 51.2553 19.5831C51.6574 20.1228 51.914 20.7502 52.0249 21.4654L49.9477 21.5742C49.8501 21.112 49.6082 20.7008 49.2222 20.3405C48.8424 19.9732 48.3263 19.8067 47.6739 19.8409C46.9016 19.8813 46.2877 20.2039 45.832 20.8086C45.3827 21.4062 45.1889 22.2943 45.2507 23.4727C45.3079 24.5645 45.5831 25.4213 46.0763 26.043C46.5695 26.6647 47.2422 26.9532 48.0944 26.9085C48.5205 26.8862 48.8784 26.774 49.1682 26.5719C49.4644 26.3628 49.6916 26.1139 49.8501 25.8252C50.0148 25.5295 50.1163 25.2371 50.1546 24.948L52.1718 24.8423C52.1422 25.5515 51.9553 26.1888 51.6111 26.7543C51.2732 27.3127 50.8062 27.7645 50.2101 28.1095C49.6137 28.4478 48.9193 28.6377 48.1271 28.6793C47.1817 28.7288 46.3287 28.5666 45.5681 28.1925C44.8138 27.8115 44.2062 27.2358 43.7452 26.4655C43.2839 25.6886 43.0238 24.7376 42.9648 23.6125C42.9087 22.5406 43.0559 21.5916 43.4064 20.7655C43.7567 19.9327 44.2828 19.2709 44.9847 18.7801C45.693 18.2824 46.5531 18.007 47.565 17.954ZM64.1754 27.6379L61.7088 27.7672L58.4622 23.1408L56.8766 24.9863L57.0352 28.0121L54.6185 28.1388L53.8408 13.2991L56.2575 13.1725L56.7395 22.3699L60.7781 17.4618L63.4445 17.322L59.921 21.5522L64.1754 27.6379Z" fill="#191C1F"/>
</svg>
